# xmcd
#
# Track frame offsets:
#	150
#	16417
#	29670
#	43137
#	62160
#	75667
#	88710
#	106330
#	120550
#	135095
#	150915
#	165482
#	177185
#	192422
#
# Disc length: 2780 seconds
#
# Revision: 1
# Processed by: cddbd v1.5.2PL0 Copyright (c) Steve Scherf et al.
# Submitted via: audiograbber 1.83.01
#
DISCID=a90ada0e
DTITLE=Various Artist - Country Love Songs
DYEAR=1996
DGENRE=Country
TTITLE0=Tanya Tucker - My Arms Stay Open All Night
TTITLE1=Crystal Gayle - Talking In Your Sleep
TTITLE2=Glen Campbell - Honey Come Back
TTITLE3=Juice Newton - Angel Of the Morning
TTITLE4=Dr Hook - When You're in Love With A Beautiful Woman
TTITLE5=Willie Nelson - Crazy
TTITLE6=Kenny Rogers - Lady
TTITLE7=Frankie Miller - Darlin'
TTITLE8=Jeannie C Riley - Harper Valley PTA
TTITLE9=Cash Backman - My Girl Bill
TTITLE10=Johnny Chester - She's My Kind Of Woman
TTITLE11=Bobbie Gentry/Glen Campbell - All I have To Do Is Dream
TTITLE12=Jessie Coulter - I'm Not Lisa
TTITLE13=Billie Jo Spears - Blanket On The Ground
EXTD=
EXTT0=
EXTT1=
EXTT2=
EXTT3=
EXTT4=
EXTT5=
EXTT6=
EXTT7=
EXTT8=
EXTT9=
EXTT10=
EXTT11=
EXTT12=
EXTT13=
PLAYORDER=
